<svg xmlns="http://www.w3.org/2000/svg" viewBox="0 0 512 512" style="enable-background:new 0 0 512 512" xml:space="preserve">
  <path d="M256 0C161.5 0 85.1 76.4 85.1 170.9c0 29.9 7.9 58.3 22.1 83.5 2.4 3.9 4.7 7.9 7.1 11.8L256 512l141-245.8c2.4-3.2 3.9-6.3 6.3-10.2l1.6-2.4c14.2-24.4 22.1-52.8 22.1-83.5C426.9 76.4 350.5 0 256 0zm0 85.1c47.3 0 85.1 38.6 85.1 85.1 0 47.3-37.8 85.9-85.1 85.9s-85.1-38.6-85.1-85.1c0-47.3 37.8-85.9 85.1-85.9z" style="fill:#e74c3c"/>
  <path d="M256 63.8c-59.1 0-106.3 48-106.3 106.3 0 59.1 48 106.3 106.3 106.3 59.1 0 106.3-48 106.3-106.3S315.1 63.8 256 63.8zm0 42.5c35.4 0 63.8 28.4 63.8 63.8s-28.4 63.8-63.8 63.8-63.8-28.4-63.8-63.8 28.4-63.8 63.8-63.8z" style="fill:#c0392b"/>
</svg>